<svg xmlns="http://www.w3.org/2000/svg" preserveAspectRatio="xMidYMid" width="13" height="12" viewBox="0 0 13 12"><defs><style>.cls-1 { fill: #2d90d0; fill-rule: evenodd; }</style></defs><path d="M12.72 11.542c-.237.302-.578.46-.922.46-.268 0-.538-.096-.76-.29l-3.435-3c-.115-.1-.2-.223-.27-.352-.777.685-1.764 1.114-2.852 1.114C2.01 9.474 0 7.35 0 4.737S2.01 0 4.48 0c2.47 0 4.48 2.125 4.48 4.737 0 .63-.12 1.23-.334 1.78.177.044.35.116.5.246l3.434 3c.508.445.58 1.24.16 1.78zM4.48 1.58c-1.646 0-2.986 1.416-2.986 3.157 0 1.74 1.34 3.158 2.987 3.158 1.65 0 2.99-1.417 2.99-3.158 0-1.74-1.34-3.158-2.986-3.158z" class="cls-1"/></svg>