<svg xmlns="http://www.w3.org/2000/svg" preserveAspectRatio="xMidYMid" width="21" height="27" viewBox="0 0 21 27"><defs><style>.cls-1 { fill: #2d90d0; fill-rule: evenodd; }</style></defs><path d="M10.877 26.998h-.68c-.55-.12-.92-.46-1.218-.9-1.47-2.15-2.93-4.296-4.4-6.44-.88-1.285-1.75-2.577-2.65-3.844C1.01 14.52.39 13.12.13 11.57c-.07-.41-.093-.823-.133-1.235v-.65c.04-.485.08-.97.17-1.45.71-3.823 3.72-6.943 7.647-7.93.6-.15 1.206-.235 1.816-.308h1.738c.392.052.784.093 1.173.163 3.95.713 7.23 3.698 8.17 7.44.15.58.23 1.167.29 1.76v1.336c-.01.042-.02.083-.02.124-.08 1.06-.35 2.072-.77 3.056-.38.913-.96 1.717-1.512 2.533-2.19 3.22-4.396 6.43-6.59 9.66-.303.44-.667.79-1.222.92zM10.5 15.172c2.943.04 5.743-2.218 5.75-5.475.008-3.178-2.683-5.487-5.697-5.494-3.217-.007-5.78 2.425-5.784 5.48-.01 3.044 2.54 5.486 5.73 5.49z" class="cls-1"/></svg>