<svg xmlns="http://www.w3.org/2000/svg" preserveAspectRatio="xMidYMid" width="22" height="31" viewBox="0 0 22 31"><defs><style>.cls-1 { fill: #04529d; fill-rule: evenodd; }</style></defs><path d="M21.48 7.716c-.114-.414-.344-.855-.515-1.24C18.92 1.708 14.455 0 10.85 0 6.026 0 .71 3.14 0 9.617v1.323c0 .055.02.55.047.8.398 3.085 2.907 6.364 4.78 9.45 2.016 3.306 4.107 6.56 6.18 9.81 1.277-2.12 2.55-4.27 3.798-6.338.34-.606.736-1.212 1.076-1.79.23-.387.666-.772.86-1.13C18.76 18.16 22 14.55 22 10.994v-1.46c0-.386-.492-1.736-.52-1.82zm-10.54 6.64c-1.42 0-2.972-.688-3.738-2.59-.115-.302-.105-.91-.105-.964v-.855c0-2.424 2.12-3.526 3.965-3.526 2.27 0 4.028 1.768 4.028 3.97 0 2.207-1.88 3.97-4.15 3.97z" class="cls-1"/></svg>