<svg xmlns="http://www.w3.org/2000/svg" preserveAspectRatio="xMidYMid" width="30" height="30" viewBox="0 0 30 30"><defs><style>.cls-1 { fill: #00295d; fill-rule: evenodd; }</style></defs><path d="M15 30C6.73 30 .004 23.27.004 14.997S6.73-.003 15-.003s14.996 6.73 14.996 15-6.727 15-14.996 15zM15 .96C7.263.96.968 7.26.968 15S7.263 29.035 15 29.035s14.032-6.297 14.032-14.037C29.032 7.258 22.737.96 15 .96zm5.978 14.24c-.318.703-.79 1.292-1.324 1.832-.266.268-.54.528-.808.793l-1.233 1.215c-.752.74-1.504 1.477-2.255 2.217-.082.08-.17.146-.283.17h-.15c-.105-.022-.19-.076-.265-.152l-1.096-1.08-1.932-1.902c-.347-.34-.696-.683-1.042-1.026-.28-.276-.565-.543-.808-.855-.397-.51-.74-1.047-.93-1.675-.072-.24-.124-.484-.152-.733v-.58c.002-.014.006-.028.007-.043.012-.21.044-.42.09-.63.117-.51.333-.96.68-1.35.533-.59 1.212-.88 1.98-.97.126-.015.253-.023.38-.034h.378c.035.014.07.006.106.01.47.055.9.208 1.31.45.484.294.93.638 1.33 1.04.03.03.05.04.09.004.323-.327.683-.606 1.06-.867.353-.245.732-.43 1.146-.544.176-.05.356-.075.538-.094h.38c.016.003.03.008.05.008.293.01.583.056.867.13.587.16 1.09.458 1.49.93.367.43.57.937.67 1.493.03.16.04.324.06.49v.55c-.003.013-.007.025-.008.038-.032.41-.146.8-.314 1.17z" class="cls-1"/></svg>