<svg xmlns="http://www.w3.org/2000/svg" preserveAspectRatio="xMidYMid" width="40.68" height="40.719" viewBox="0 0 40.68 40.719"><defs><style>.cls-1 { fill: #39aaf2; fill-rule: evenodd; }</style></defs><path d="M36.39 40.013L.746 4.306C-.834 2.723.286.016 2.52.016h35.644c1.385 0 2.508 1.125 2.508 2.513v35.704c0 2.238-2.702 3.36-4.282 1.776zM23.06 7.298l-3.42 3.424 1.207-5.638-.973-.974-5.586 5.59 1.09 1.093 3.43-3.432-1.217 5.65.977.974 5.586-5.59L23.06 7.3zm2.588 2.59l-5.586 5.592 3.68 3.683.972-.974-2.59-2.595 1.358-1.36 2.205 2.208.973-.974-2.205-2.206 1.31-1.312 2.59 2.592.972-.974-3.68-3.68zm10.065 10.075l-4.394 2.655 2.5-4.547-.817-.813-4.542 2.505 2.66-4.39-1.137-1.14-4.096 7.085.91.91 4.416-2.363-2.36 4.423.91.91 7.083-4.09-1.138-1.14z" class="cls-1"/></svg>