<svg xmlns="http://www.w3.org/2000/svg" preserveAspectRatio="xMidYMid" width="25.94" height="26" viewBox="0 0 25.94 26"><defs><style>.cls-1 { fill: #7999af; fill-rule: evenodd; }</style></defs><path d="M15.245 13.005l10.22 10.247c.628.63.628 1.648 0 2.277-.313.31-.724.47-1.135.47-.41 0-.822-.16-1.135-.47l-10.22-10.25L2.752 25.53c-.314.313-.725.47-1.136.47-.41 0-.822-.157-1.135-.47-.625-.63-.625-1.65 0-2.278L10.7 13.005.484 2.757c-.63-.627-.63-1.647 0-2.277.626-.63 1.643-.63 2.27 0l10.222 10.25L23.196.48c.625-.63 1.643-.63 2.27 0s.627 1.65 0 2.277l-10.22 10.248z" class="cls-1"/></svg>