<svg xmlns="http://www.w3.org/2000/svg" preserveAspectRatio="xMidYMid" width="16" height="23" viewBox="0 0 16 23"><defs><style>.cls-1 { fill: #04295d; fill-rule: evenodd; }</style></defs><path d="M15.622 5.725c-.083-.307-.25-.634-.375-.92C13.76 1.267 10.514 0 7.892 0 4.382 0 .516 2.33 0 7.135v.982c0 .04.014.408.035.593.29 2.29 2.113 4.722 3.476 7.012C4.98 18.175 6.5 20.588 8.008 23c.93-1.574 1.855-3.17 2.763-4.702.246-.45.534-.9.78-1.33.166-.285.48-.57.626-.838C13.64 13.473 16 10.795 16 8.157V7.074c0-.286-.358-1.288-.378-1.35zm-7.666 4.927c-1.032 0-2.16-.51-2.718-1.922-.083-.225-.077-.675-.077-.716V7.38c0-1.798 1.546-2.616 2.887-2.616 1.652 0 2.93 1.308 2.93 2.944 0 1.635-1.367 2.944-3.02 2.944z" class="cls-1"/></svg>