<svg xmlns="http://www.w3.org/2000/svg" preserveAspectRatio="xMidYMid" width="127" height="31" viewBox="0 0 127 31"><defs><style>.cls-1 { fill: #00529c; fill-rule: evenodd; }</style></defs><path d="M124.98 5.015c-1.12 0-2.02-.91-2.02-2.04-.006-1.122.9-2.038 2.02-2.038 1.112 0 2.02.916 2.02 2.038 0 1.13-.908 2.034-2.02 2.04zm-.006-3.842c-.985 0-1.787.81-1.78 1.81 0 .992.795 1.8 1.785 1.796.98 0 1.78-.81 1.78-1.81 0-.99-.806-1.8-1.79-1.8zm.93 2.33c.024.294-.018.34.106.537h-.34l-.047-.284c-.046-.266.082-.68-.38-.68h-.732v.964h-.28V1.793h.998c.346 0 .68.066.71.574.01.29-.077.396-.294.562.23.14.234.18.27.57zm-.678-1.455h-.715v.774h.72c.198 0 .38-.054.41-.343.04-.39-.23-.44-.41-.44zM114.74 29.455c-2.48 1.38-5.987 2.262-8.546.77-.777-.433-1.577-1.235-2.08-2.112-.778-1.293-1.052-2.863-1.052-4.48V8.623h7.893V21.68c.014 1.137.705 1.506 1.166 1.676.69.23 1.39.1 1.97-.277.87-.6 1.01-1.53 1.05-2.5V8.62h7.53v21.96h-7.6l-.32-1.13zm-19.376-.073c-2.105 1.478-5.4 1.893-7.64.738-2.518-1.246-4.21-4.064-4.166-6.88.138-2.77 1.556-5.496 4.12-6.743 1.92-1.016 4.528-1.154 6.632-.74.235-.695-.09-1.154-.09-1.154-.458-1.056-2.83-1.2-4.21-1.062l-4.072.37.64-5.08c4.12-.69 10.38-1.3 13.225.59 0 0 .683.39 1.255 1.48.87 1.57 1.097 3.32 1.123 5.237V30.4h-6.49l-.32-1.017zm-2.26-8.99c-1.34 0-2.426 1.097-2.426 2.45 0 1.352 1.086 2.45 2.427 2.45 1.34 0 2.425-1.098 2.425-2.45 0-1.353-1.085-2.45-2.425-2.45zm-18.2 9.2c-2.06 1.015-4.505 1.74-7.138 1.154-3.348-.81-6.13-3.187-7.275-6.19-1.6-4.432-.86-9.974 2.57-13.254 2.79-3.094 7.598-3.694 11.3-2.263l.918.37V.12h7.516v30.39h-7.51l-.375-.923zM71.196 15.6c-2.19 0-3.97 1.793-3.97 4.002 0 2.21 1.78 4 3.97 4 2.193 0 3.97-1.79 3.97-4s-1.777-4-3.97-4zm-20.062 1.86c-.014-1.14-.705-1.507-1.167-1.677-.686-.232-1.385-.098-1.967.277-.87.6-1.007 1.524-1.052 2.494v11.96H39.42V8.554h7.608V9.85c2.38-1.662 6.308-2.426 8.865-.935.78.433 1.578 1.235 2.08 2.113.78 1.292 1.054 2.863 1.054 4.48v15.01h-7.893V17.46zM31.547 29.406c-2.104 1.48-5.4 1.894-7.64.74-2.516-1.248-4.21-4.065-4.164-6.882.137-2.77 1.555-5.495 4.117-6.742 1.922-1.017 4.53-1.155 6.635-.74.233-.695-.092-1.154-.092-1.154-.457-1.056-2.83-1.2-4.21-1.062l-4.07.37.64-5.08c4.117-.694 10.38-1.305 13.224.586 0 0 .683.385 1.256 1.475.87 1.57 1.096 3.32 1.122 5.235v14.27h-6.497l-.32-1.016zm-2.26-8.99c-1.34 0-2.425 1.097-2.425 2.45 0 1.352 1.086 2.45 2.426 2.45s2.427-1.098 2.427-2.45c0-1.353-1.087-2.45-2.427-2.45zM0 30.538V.01h8.122v22.284h11.255l-2.516 8.244H0z" class="cls-1"/></svg>