<svg xmlns="http://www.w3.org/2000/svg" preserveAspectRatio="xMidYMid" width="36.031" height="32" viewBox="0 0 36.031 32"><defs><style>.cls-1 { fill: #7c98ac; fill-rule: evenodd; }</style></defs><path d="M35.292 30.778c-.656.806-1.604 1.223-2.558 1.223-.744 0-1.492-.25-2.11-.77l-9.532-8c-.303-.254-.538-.557-.727-.882-2.155 1.82-4.92 2.917-7.936 2.917-6.857 0-12.434-5.666-12.434-12.63C-.004 5.665 5.574 0 12.43 0s12.43 5.667 12.43 12.633c0 1.673-.33 3.267-.913 4.73.485.114.955.327 1.366.672l9.53 8c1.413 1.186 1.612 3.308.446 4.743zM12.43 4.21c-4.57 0-8.29 3.78-8.29 8.423 0 4.642 3.72 8.42 8.29 8.42 4.57 0 8.288-3.778 8.288-8.42 0-4.644-3.72-8.422-8.29-8.422z" class="cls-1"/></svg>