<svg xmlns="http://www.w3.org/2000/svg" preserveAspectRatio="xMidYMid" width="30" height="30" viewBox="0 0 30 30"><defs><style>.cls-1 { fill: #00295d; fill-rule: evenodd; }</style></defs><path d="M15-.003c-8.283 0-14.996 6.716-14.996 15C.004 23.284 6.717 30 15 30c8.282 0 14.996-6.717 14.996-15.002s-6.714-15-14.996-15zm6.51 13.958c-.004.013-.008.026-.01.04-.032.424-.15.825-.324 1.21-.328.726-.816 1.334-1.368 1.892-.275.278-.557.546-.835.82L17.7 19.172c-.777.764-1.555 1.526-2.33 2.29-.085.084-.176.152-.292.177h-.157c-.105-.025-.192-.08-.27-.16l-1.133-1.117L11.52 18.4c-.36-.354-.72-.706-1.077-1.06-.288-.286-.583-.562-.835-.885-.41-.525-.763-1.08-.96-1.728-.075-.25-.128-.5-.158-.758v-.6c.003-.016.007-.03.008-.046.012-.22.045-.44.094-.655.12-.526.343-.997.7-1.396.552-.612 1.253-.907 2.046-1.006.13-.017.263-.025.394-.036h.39c.036.014.073.006.11.01.48.057.93.215 1.344.466.5.303.96.658 1.376 1.073.032.033.054.043.09.006.334-.338.706-.627 1.094-.896.365-.254.757-.447 1.185-.563.184-.05.37-.077.558-.096h.39c.017.003.034.008.05.008.305.01.604.058.898.137.607.163 1.128.47 1.542.958.378.445.59.97.69 1.543.03.167.045.337.062.506v.57z" class="cls-1"/></svg>