<svg xmlns="http://www.w3.org/2000/svg" preserveAspectRatio="xMidYMid" width="34" height="34" viewBox="0 0 34 34"><defs><style>.cls-1 { fill: #00295d; fill-rule: evenodd; }</style></defs><path d="M29.02 29.02c-6.627 6.63-17.412 6.63-24.04 0-6.63-6.627-6.63-17.413 0-24.04 6.627-6.63 17.413-6.63 24.04 0 6.63 6.628 6.63 17.413 0 24.04zm-1.4-22.64C21.764.524 12.236.524 6.38 6.38c-5.856 5.856-5.856 15.384 0 21.24 5.856 5.856 15.384 5.856 21.24 0 5.856-5.856 5.856-15.384 0-21.24zm-6.74 15.9L17 18.4l-3.88 3.88-1.4-1.4L15.6 17l-3.88-3.88 1.4-1.4L17 15.6l3.88-3.88 1.4 1.4L18.4 17l3.88 3.88-1.4 1.4z" class="cls-1"/></svg>