<svg xmlns="http://www.w3.org/2000/svg" xmlns:xlink="http://www.w3.org/1999/xlink" preserveAspectRatio="xMidYMid" width="55.656" height="55.719" viewBox="0 0 55.656 55.719">
  <defs>
    <style>
      .cls-1 {
        fill: #00295d;
      }

      .cls-1, .cls-2, .cls-3 {
        fill-rule: evenodd;
      }

      .cls-2 {
        fill: #a3d8f9;
      }

      .cls-3 {
        fill: #fff;
      }
    </style>
  </defs>
  <g>
    <path d="M51.380,55.001 L0.736,4.293 C-0.844,2.710 0.275,0.003 2.510,0.003 L53.154,0.003 C54.539,0.003 55.663,1.128 55.663,2.516 L55.663,53.224 C55.663,55.463 52.961,56.584 51.380,55.001 Z" class="cls-1"/>
    <path d="M51.219,20.927 L44.838,24.611 L44.018,23.791 L46.145,19.809 L42.167,21.938 L41.347,21.117 L45.036,14.738 L46.060,15.763 L43.665,19.717 L47.756,17.461 L48.491,18.196 L46.237,22.292 L50.194,19.901 L51.219,20.927 ZM41.233,12.686 L40.053,13.867 L42.039,15.854 L41.163,16.731 L39.177,14.744 L37.955,15.968 L40.286,18.302 L39.410,19.179 L36.096,15.861 L41.127,10.826 L44.441,14.143 L43.565,15.020 L41.233,12.686 ZM33.869,13.632 L34.964,8.547 L31.876,11.638 L30.894,10.655 L35.925,5.619 L36.802,6.496 L35.713,11.574 L38.794,8.490 L39.776,9.474 L34.745,14.509 L33.869,13.632 Z" class="cls-2"/>
    <path d="M47.396,33.569 C47.382,32.947 47.043,32.522 46.711,32.190 C46.188,31.666 45.644,31.702 45.297,32.048 C45.170,32.176 45.078,32.352 45.085,32.558 C45.093,32.749 45.177,32.989 45.354,33.222 L45.863,33.901 C46.258,34.425 46.421,34.842 46.435,35.252 C46.449,35.776 46.202,36.264 45.757,36.709 C44.782,37.685 43.418,37.424 42.365,36.370 C41.602,35.606 41.185,34.863 41.192,33.866 L42.464,33.866 C42.464,34.503 42.789,35.040 43.255,35.507 C43.835,36.087 44.365,36.179 44.768,35.776 C44.944,35.599 45.043,35.401 45.036,35.196 C45.029,35.005 44.965,34.842 44.768,34.573 L44.245,33.880 C43.877,33.385 43.693,32.932 43.686,32.487 C43.686,32.006 43.891,31.560 44.315,31.136 C45.213,30.238 46.506,30.273 47.594,31.362 C48.286,32.055 48.619,32.727 48.633,33.576 L47.396,33.569 ZM41.078,30.654 L40.032,33.950 L38.894,32.811 L39.919,29.819 L39.212,29.112 L37.206,31.121 L36.223,30.138 L41.255,25.102 L43.226,27.075 C44.251,28.101 44.159,29.409 43.318,30.251 C42.611,30.958 41.742,30.965 41.078,30.654 ZM42.286,27.889 L41.361,26.962 L40.032,28.292 L40.958,29.218 C41.389,29.650 41.947,29.657 42.336,29.268 C42.724,28.879 42.717,28.320 42.286,27.889 ZM35.049,27.944 C34.343,27.944 33.714,27.711 33.142,27.138 C32.569,26.565 32.329,25.928 32.329,25.221 C32.329,24.203 32.972,23.587 33.841,22.717 C34.710,21.847 35.325,21.204 36.343,21.204 C37.049,21.204 37.685,21.444 38.258,22.017 C38.830,22.590 39.063,23.219 39.063,23.927 C39.063,24.945 38.427,25.568 37.558,26.438 C36.689,27.308 36.067,27.944 35.049,27.944 ZM37.381,22.894 C37.113,22.625 36.781,22.505 36.477,22.526 C36.074,22.548 35.791,22.731 34.823,23.700 C33.855,24.669 33.672,24.952 33.650,25.355 C33.629,25.660 33.749,25.992 34.018,26.261 C34.286,26.530 34.611,26.643 34.915,26.621 C35.318,26.600 35.608,26.423 36.576,25.454 C37.544,24.485 37.720,24.195 37.742,23.792 C37.763,23.488 37.650,23.163 37.381,22.894 ZM31.579,23.735 L30.703,24.612 L27.438,21.344 L32.469,16.308 L33.452,17.291 L29.297,21.450 L31.579,23.735 ZM26.264,19.151 C25.558,19.151 24.929,18.917 24.356,18.344 C23.784,17.771 23.544,17.135 23.544,16.428 C23.544,15.409 24.187,14.794 25.056,13.924 C25.925,13.054 26.540,12.410 27.557,12.410 C28.264,12.410 28.900,12.651 29.472,13.224 C30.045,13.796 30.278,14.426 30.278,15.133 C30.278,16.152 29.642,16.774 28.773,17.644 C27.904,18.514 27.282,19.151 26.264,19.151 ZM28.596,14.101 C28.327,13.832 27.995,13.712 27.692,13.733 C27.289,13.754 27.006,13.938 26.038,14.907 C25.070,15.876 24.886,16.159 24.865,16.562 C24.844,16.866 24.964,17.198 25.232,17.467 C25.501,17.736 25.826,17.849 26.130,17.828 C26.533,17.807 26.822,17.630 27.790,16.661 C28.759,15.692 28.935,15.402 28.956,14.999 C28.978,14.695 28.865,14.369 28.596,14.101 ZM24.398,11.327 C24.723,10.790 24.737,10.238 24.263,9.764 C23.995,9.495 23.698,9.368 23.373,9.396 C22.949,9.410 22.681,9.594 21.706,10.570 C20.730,11.546 20.547,11.815 20.533,12.239 C20.504,12.565 20.631,12.862 20.900,13.131 C21.373,13.605 21.925,13.590 22.462,13.265 L23.458,14.262 C22.264,15.118 20.978,14.963 20.017,14.001 C19.480,13.463 19.211,12.827 19.211,12.091 C19.211,11.652 19.331,11.263 19.557,10.924 C19.784,10.584 20.172,10.139 20.723,9.587 C21.274,9.036 21.720,8.647 22.059,8.420 C22.405,8.187 22.787,8.074 23.225,8.074 C23.960,8.074 24.596,8.342 25.133,8.880 C26.101,9.849 26.249,11.129 25.394,12.324 L24.398,11.327 Z" class="cls-3"/>
  </g>
</svg>
