<svg id="Layer_1" xmlns="http://www.w3.org/2000/svg" viewBox="-111 247 208.8 48"><style>.st0{fill:#F89C24;} .st1{fill:#C3268F;}</style><path class="st0" d="M93.9 287.6c1.5.3 3.1.5 3.1.5.7.2 1.1 1 .9 1.7-.2.7-1 1.1-1.7.9 0 0-1.4-.7-2.9-1.4l2.2 2.2c.4.6.3 1.4-.3 1.8-.6.4-1.4.3-1.9-.3 0 0-.7-1.3-1.4-2.7.2 1.6.5 3 .5 3 0 .7-.6 1.3-1.3 1.3s-1.3-.6-1.3-1.3c0 0 .3-1.5.5-3.1-.8 1.4-1.5 2.8-1.5 2.8-.4.6-1.3.7-1.9.3-.6-.4-.7-1.3-.3-1.8l2.2-2.2c-1.5.7-2.9 1.4-2.9 1.4-.7.2-1.4-.2-1.7-.9-.2-.7.2-1.4.9-1.7 0 0 1.5-.2 3.1-.5-1.6-.3-3.1-.5-3.1-.5-.7-.2-1.1-1-.9-1.7.2-.7 1-1.1 1.7-.9 0 0 1.4.7 2.9 1.4-1.1-1.2-2.2-2.3-2.2-2.3-.4-.6-.3-1.4.3-1.8.6-.4 1.4-.3 1.9.3 0 0 .7 1.4 1.5 2.9-.2-1.6-.5-3.2-.5-3.2 0-.7.6-1.3 1.3-1.3s1.3.6 1.3 1.3c0 0-.3 1.5-.5 3.1l1.4-2.8c.4-.6 1.3-.7 1.9-.3.6.4.7 1.3.3 1.8l-2.2 2.2 2.8-1.4c.7-.2 1.4.2 1.7.9.2.7-.2 1.4-.9 1.7 0 .1-1.5.3-3 .6z"/><path class="st1" d="M88 266.2c-.1 0-.2-.1-.2-.2v-1.9l-.9 2c0 .1-.1.1-.2.1s-.2-.1-.2-.1l-.9-2v1.9c0 .1-.1.2-.2.2s-.2-.1-.2-.2v-2.7c0-.1.1-.2.2-.2s.2.1.2.1l1.2 2.4 1.2-2.4c0-.1.1-.1.2-.1s.2.1.2.2v2.7c-.2.1-.3.2-.4.2zm-3.7-2.7h-.9v2.5c0 .1-.1.2-.2.2s-.2-.1-.2-.2v-2.5h-.9c-.1 0-.2-.1-.2-.2s.1-.2.2-.2h2.3c.1 0 .2.1.2.2-.1.1-.2.2-.3.2zM81.9 279c0-9-5.8-16.1-14.7-16.1-9.1 0-15.8 6.9-15.8 16 0 8.7 5.6 16 16.1 16 5.1 0 9.9-2 12.5-5.1.5-.6.8-1.2.8-1.9 0-1.7-1.3-2.7-2.8-2.7-.8 0-1.6.5-2.2 1.1-2.3 2.2-4.5 3.4-8.2 3.4-5.9 0-9.2-3.6-9.5-8.5h21.1c2 .1 2.7-1 2.7-2.2zm-23.5-3c.6-4.3 3.9-7.8 8.8-7.8 4.8 0 8 3.6 8.5 7.8H58.4zm-14 18.7c-1.8 0-3.3-1.5-3.3-3.3v-14.6c0-4.4-3.5-7.8-8.2-7.8-4.7 0-8.1 3.4-8.1 7.8v14.6c0 1.8-1.5 3.3-3.3 3.3-1.8 0-3.3-1.5-3.3-3.3v-13.9c0-8.2 6.2-14.6 14.7-14.6s14.8 6.4 14.8 14.6v13.9c0 1.9-1.4 3.3-3.3 3.3zM-2.8 263c-9.9 0-16.3 7.3-16.3 16 0 8.9 5.7 16 15.6 16 4.6 0 8.3-2.2 10.3-5.1v1.5c0 1.8 1.3 3.3 3.2 3.3 2 0 3.3-1.5 3.3-3.3V279c0-9.5-5.9-16-16.1-16zm-.1 26.4c-6.3 0-9.6-4.4-9.6-10.4 0-5.7 3.9-10.4 9.6-10.4 5.6 0 9.6 4 9.6 10.4 0 5.4-3.7 10.4-9.6 10.4zM-36.7 263c-4.7 0-8.6 2.5-10.9 6v-18.7c0-1.8-1.3-3.3-3.3-3.3s-3.3 1.5-3.3 3.3v41.2c0 1.8 1.1 3.3 3.2 3.3 2 0 3.2-1.5 3.2-3.4V289c2.1 3.6 6.3 6 11.1 6 8.1 0 14.7-6.7 14.7-16 0-9.7-6.6-16-14.7-16zm-1.3 26.5c-5.7 0-9.5-5-9.5-10.6s3.8-10.6 9.5-10.6 9.4 4.3 9.4 10.6c0 6.4-3.7 10.6-9.4 10.6zm-22.2-20.3c-5.6 0-9 3.6-9 10.7v11.5c0 1.8-1.4 3.3-3.3 3.3-2.1 0-3.3-1.5-3.3-3.3v-24.8c0-2 1.4-3.4 3.4-3.4 1.9 0 3.2 1.3 3.2 3.4v3c1.2-4 4.5-6.5 9-6.5 1.9 0 3.1 1.3 3.1 3.1 0 1.7-1.4 3-3.1 3zM-96.3 295c-8.5 0-14.7-6.4-14.7-14.6v-13.9c0-1.8 1.5-3.3 3.3-3.3 1.8 0 3.3 1.5 3.3 3.3v14.6c0 4.4 3.5 7.8 8.1 7.8s8.2-3.4 8.2-7.8v-14.6c0-1.8 1.5-3.3 3.3-3.3s3.3 1.5 3.3 3.3v13.9c0 8.2-6.2 14.6-14.8 14.6z"/></svg>